<svg width="414" height="74" viewBox="0 0 414 74" fill="none" xmlns="http://www.w3.org/2000/svg">
<path d="M36 33.5L25 4.5L0 74H22.5L36 33.5Z" fill="white"/>
<path d="M88.5 74V0.5H113.5V74H88.5Z" fill="white"/>
<path d="M117.5 15.5V0.5H146L160 15.5V38L148.5 49.5V46.5L125.5 49.5V52.5H117.5V38H135.5V15.5H117.5Z" fill="white"/>
<path d="M136.5 74L126.5 52.5H146.5L149.5 49.5L163 74H136.5Z" fill="white"/>
<path d="M172 74V8L193.5 42V74H172Z" fill="white"/>
<path d="M216.5 74L172 0.5H198L243 74H216.5Z" fill="white"/>
<path d="M222 32C221.833 22 221.6 1.7 222 0.5H243V66.5L222 32Z" fill="white"/>
<path d="M255.5 59.5V0.5H280V59.5H289V74H269.5L255.5 59.5Z" fill="white"/>
<path d="M302.5 59.5V0.5H327V59.5L313 74H293.5V59.5H302.5Z" fill="white"/>
<path d="M340 74V0.5H364.5V74H340Z" fill="white"/>
<path d="M368.5 15V0.5H397.5L411.5 15V38L399.5 49V47L376 50.5V52.5H368.5V38H387V15H368.5Z" fill="white"/>
<path d="M388 74L377.5 52.5H397.5L400.5 49L413.5 74H388Z" fill="white"/>
<path d="M48 51.5L28.5 0H51.5L81 74H56.5L53.5 66H30.5L35 51.5H48Z" fill="white"/>
</svg>
